<svg width="159" height="169" viewBox="0 0 159 169" fill="none" xmlns="http://www.w3.org/2000/svg">
<path d="M147 137V44.5C147 26.5 130 12 115.5 12H88.5C84.5 12 74.5 14.5 74.5 17.5C74.5 14.5 62.5 12 59.5 12H34.5C18.5 12 2 26.5 2 44.5V137C2 152.5 21.5 167 34.588 167H59.5C63.5 167 74.5 164 74.5 160.5C74.5 164 84.5 167 88.5 167H115.5C128.5 167 147 151.5 147 137Z" fill="#353745" stroke="#353745" stroke-width="3"/>
<path d="M157.5 126.5V34C157.5 16 140.5 1.49999 126 1.49999H99C95 1.49999 85 4 85 6.99999C85 4 73 1.5 70 1.49999H45C29 1.49999 12.5 16 12.5 34V126.5C12.5 142 32 156.5 45.088 156.5H70C74 156.5 85 153.5 85 150C85 153.5 95 156.5 99 156.5H126C139 156.5 157.5 141 157.5 126.5Z" fill="#DD8A4D" stroke="#353745" stroke-width="3"/>
<path d="M28.5 64.5858V58.4142C28.5 58.149 28.6054 57.8946 28.7929 57.7071C29.1834 57.3166 29.8166 57.3166 30.2071 57.7071C30.3946 57.8946 30.5 58.149 30.5 58.4142V64.5858C30.5 64.851 30.3946 65.1054 30.2071 65.2929C29.8166 65.6834 29.1834 65.6834 28.7929 65.2929C28.6054 65.1054 28.5 64.851 28.5 64.5858Z" fill="#353745" stroke="#353745"/>
<path d="M46 137.5L66.5 137.5C66.8246 137.5 67.1404 137.605 67.4 137.8C68.2 138.4 68.2 139.6 67.4 140.2C67.1404 140.394 66.8245 140.5 66.5 140.5L46 140.5C40.5 140.5 31 134.5 31 132C31 130.937 31.2509 130.628 31.9305 130.537C32.5933 130.449 33.2169 130.838 33.6125 131.377C35.7009 134.224 39.2123 137.5 46 137.5Z" fill="#353745" stroke="#353745"/>
<path d="M30.25 72.25C29.8358 72.6642 29.1642 72.6642 28.75 72.25C28.3358 71.8358 28.3358 71.1642 28.75 70.75C29.1642 70.3358 29.8358 70.3358 30.25 70.75C30.6642 71.1642 30.6642 71.8358 30.25 72.25Z" fill="#353745" stroke="#353745"/>
<path d="M65.5 35.5H48.5C47.3954 35.5 46.5 36.3954 46.5 37.5V120.5C46.5 121.605 47.3954 122.5 48.5 122.5H65.5C66.6046 122.5 67.5 121.605 67.5 120.5V88.5852C67.5 87.4806 68.3954 86.5852 69.5 86.5852H100.575C101.68 86.5852 102.575 87.4806 102.575 88.5852V120.5C102.575 121.605 103.47 122.5 104.575 122.5H121.5C122.605 122.5 123.5 121.605 123.5 120.5V37.5C123.5 36.3954 122.605 35.5 121.5 35.5H104.5C103.395 35.5 102.5 36.3954 102.5 37.5V66.5C102.5 67.6046 101.605 68.5 100.5 68.5H69.5C68.3954 68.5 67.5 67.6046 67.5 66.5V37.5C67.5 36.3954 66.6046 35.5 65.5 35.5Z" fill="#C7DD4D" stroke="#353745" stroke-width="3"/>
<path d="M28.5 122.586V101.414C28.5 101.149 28.6054 100.895 28.7929 100.707C29.1834 100.317 29.8166 100.317 30.2071 100.707C30.3946 100.895 30.5 101.149 30.5 101.414V122.586C30.5 122.851 30.3946 123.105 30.2071 123.293C29.8166 123.683 29.1834 123.683 28.7929 123.293C28.6054 123.105 28.5 122.851 28.5 122.586Z" fill="#353745" stroke="#353745"/>
<path d="M28.5 93.5858V78.4142C28.5 78.149 28.6054 77.8946 28.7929 77.7071C29.1834 77.3166 29.8166 77.3166 30.2071 77.7071C30.3946 77.8946 30.5 78.149 30.5 78.4142V93.5858C30.5 93.851 30.3946 94.1054 30.2071 94.2929C29.8166 94.6834 29.1834 94.6834 28.7929 94.2929C28.6054 94.1054 28.5 93.851 28.5 93.5858Z" fill="#353745" stroke="#353745"/>
</svg>

